<svg width="306" height="96" viewBox="0 0 306 96" fill="none" xmlns="http://www.w3.org/2000/svg">
<path d="M34.9389 32.4243C32.5974 30.9612 29.9888 29.6754 27.1131 28.567C24.2375 27.4585 21.8959 26.9043 20.0884 26.9043C18.3219 26.9043 17.4387 27.5916 17.4387 28.966C17.4387 30.0301 17.9933 30.8503 19.1024 31.4267C20.2527 32.0031 22.0602 32.646 24.525 33.3553C27.6061 34.2864 30.1531 35.2175 32.166 36.1486C34.22 37.0796 36.007 38.5649 37.527 40.6044C39.047 42.5996 39.807 45.2376 39.807 48.5185C39.807 51.8881 38.9854 54.7257 37.3422 57.0312C35.74 59.2924 33.5628 60.9772 30.8104 62.0856C28.058 63.194 24.9975 63.7482 21.6289 63.7482C17.8084 63.7482 13.9468 63.0832 10.0442 61.7531C6.18261 60.3786 2.83455 58.5165 0 56.1666L5.29938 44.5282C7.47665 46.5677 10.2085 48.319 13.4949 49.7821C16.7814 51.2009 19.5338 51.9103 21.7521 51.9103C22.8202 51.9103 23.6624 51.7108 24.2786 51.3118C24.8948 50.8684 25.2029 50.2033 25.2029 49.3166C25.2029 48.2525 24.6072 47.4323 23.4159 46.8559C22.2656 46.2352 20.4375 45.5923 17.9316 44.9273C14.8917 44.0849 12.3447 43.2203 10.2907 42.3335C8.27772 41.4025 6.5318 39.9837 5.0529 38.0772C3.574 36.1707 2.83455 33.6214 2.83455 30.4291C2.83455 27.3255 3.59454 24.621 5.11452 22.3155C6.6345 19.9656 8.79122 18.17 11.5847 16.9286C14.3782 15.6871 17.6235 15.0664 21.3208 15.0664C24.6894 15.0664 28.0374 15.5763 31.3649 16.596C34.7335 17.6158 37.6503 18.968 40.1151 20.6528L34.9389 32.4243Z" fill="white"/>
<path d="M42.2023 16.2635H56.4983V50.0482H74.4916V62.8837H42.2023V16.2635Z" fill="white"/>
<path d="M76.8821 16.2635H91.1781V62.8837H76.8821V16.2635Z" fill="white"/>
<path d="M114.165 16.2635C118.889 16.2635 123.017 17.2167 126.55 19.1232C130.083 21.0297 132.815 23.7564 134.746 27.3034C136.677 30.806 137.642 34.885 137.642 39.5403C137.642 44.24 136.656 48.3412 134.684 51.8438C132.712 55.3464 129.898 58.0731 126.242 60.0239C122.627 61.9304 118.416 62.8837 113.61 62.8837H94.8773V16.2635H114.165ZM114.534 50.9127C117.122 50.9127 119.176 49.893 120.696 47.8535C122.257 45.814 123.038 43.0873 123.038 39.6733C123.038 36.2151 122.196 33.444 120.512 31.3602C118.868 29.2764 116.65 28.2344 113.856 28.2344H109.173V50.9127H114.534Z" fill="white"/>
<path d="M139.17 16.2635H175.711V27.9684H153.466V33.6879H173.677V45.3928H153.466V51.1787H176.265V62.8837H139.17V16.2635Z" fill="white"/>
<path d="M204.083 62.8837L198.907 50.7797H193.546V62.8837H179.25V16.2635H200.139C206.014 16.2635 210.553 17.7266 213.757 20.6528C216.961 23.5347 218.564 27.6359 218.564 32.9563C218.564 36.3259 217.968 39.2743 216.777 41.8015C215.626 44.2844 213.942 46.2574 211.724 47.7205L220.227 62.8837H204.083ZM193.546 39.0748H200.139C201.7 39.0748 202.891 38.5871 203.713 37.6117C204.576 36.5919 205.007 35.1953 205.007 33.4219C205.007 31.6927 204.576 30.3626 203.713 29.4315C202.891 28.4561 201.7 27.9684 200.139 27.9684H193.546V39.0748Z" fill="white"/>
<path d="M16.8598 94.8502L13.1009 88.7703C12.6682 88.8071 12.3166 88.8256 12.0462 88.8256H7.2325V94.8502H4.63636V75.505H12.0462C14.444 75.505 16.2919 76.0761 17.59 77.2184C18.9061 78.3423 19.5641 79.9452 19.5641 82.0271C19.5641 83.5931 19.2036 84.9105 18.4824 85.979C17.7793 87.0476 16.7607 87.8215 15.4266 88.3005L19.8346 94.8502H16.8598ZM12.0462 86.4212C13.6688 86.4212 14.9127 86.062 15.7781 85.3434C16.6435 84.6065 17.0762 83.5286 17.0762 82.11C17.0762 80.7282 16.6435 79.6872 15.7781 78.9871C14.9127 78.2686 13.6688 77.9093 12.0462 77.9093H7.2325V86.4212H12.0462Z" fill="white"/>
<path d="M28.5061 75.505H41.6491V77.9093H31.1023V83.8787H40.5403V86.283H31.1023V92.4459H41.9736V94.8502H28.5061V75.505Z" fill="white"/>
<path d="M47.9317 75.505H50.7172L56.9641 91.8932L63.2111 75.505H65.9424L58.2622 94.8502H55.5579L47.9317 75.505Z" fill="white"/>
<path d="M81.0084 75.3391C82.8293 75.3391 84.4969 75.7721 86.0113 76.638C87.5438 77.504 88.7517 78.6923 89.6351 80.2031C90.5185 81.6954 90.9602 83.3444 90.9602 85.15C90.9602 86.9555 90.5185 88.6229 89.6351 90.1521C88.7517 91.6629 87.5438 92.8604 86.0113 93.7448C84.4969 94.6107 82.8293 95.0437 81.0084 95.0437C79.1875 95.0437 77.5108 94.6107 75.9784 93.7448C74.4639 92.8604 73.265 91.6629 72.3816 90.1521C71.4982 88.6229 71.0565 86.9555 71.0565 85.15C71.0565 83.3444 71.4982 81.6954 72.3816 80.2031C73.265 78.6923 74.4639 77.504 75.9784 76.638C77.4928 75.7721 79.1694 75.3391 81.0084 75.3391ZM81.0354 77.7159C79.7193 77.7159 78.4934 78.0475 77.3575 78.7108C76.2398 79.374 75.3473 80.2768 74.6803 81.4191C74.0132 82.543 73.6797 83.7866 73.6797 85.15C73.6797 86.5134 74.0132 87.7662 74.6803 88.9085C75.3473 90.0508 76.2398 90.9628 77.3575 91.6445C78.4934 92.3077 79.7193 92.6394 81.0354 92.6394C82.3515 92.6394 83.5594 92.3077 84.6592 91.6445C85.777 90.9628 86.6604 90.0508 87.3094 88.9085C87.9765 87.7662 88.31 86.5134 88.31 85.15C88.31 83.7866 87.9765 82.543 87.3094 81.4191C86.6604 80.2768 85.777 79.374 84.6592 78.7108C83.5594 78.0475 82.3515 77.7159 81.0354 77.7159Z" fill="white"/>
<path d="M99.0062 75.505H101.602V92.4459H109.877V94.8502H99.0062V75.505Z" fill="white"/>
<path d="M119.705 86.9463C119.705 88.7334 120.183 90.1337 121.139 91.147C122.112 92.1419 123.446 92.6394 125.141 92.6394C126.818 92.6394 128.134 92.1419 129.089 91.147C130.045 90.1337 130.523 88.7334 130.523 86.9463V75.505H133.119V86.9463C133.119 89.4704 132.407 91.451 130.982 92.8881C129.576 94.3251 127.629 95.0437 125.141 95.0437C122.635 95.0437 120.67 94.3251 119.246 92.8881C117.821 91.451 117.109 89.4704 117.109 86.9463V75.505H119.705V86.9463Z" fill="white"/>
<path d="M140.007 75.505H154.8V77.9369H148.688V94.8502H146.092V77.9369H140.007V75.505Z" fill="white"/>
<path d="M162.112 75.505H164.708V94.8502H162.112V75.505Z" fill="white"/>
<path d="M182.716 75.3391C184.537 75.3391 186.204 75.7721 187.719 76.638C189.251 77.504 190.459 78.6923 191.342 80.2031C192.226 81.6954 192.668 83.3444 192.668 85.15C192.668 86.9555 192.226 88.6229 191.342 90.1521C190.459 91.6629 189.251 92.8604 187.719 93.7448C186.204 94.6107 184.537 95.0437 182.716 95.0437C180.895 95.0437 179.218 94.6107 177.686 93.7448C176.171 92.8604 174.972 91.6629 174.089 90.1521C173.206 88.6229 172.764 86.9555 172.764 85.15C172.764 83.3444 173.206 81.6954 174.089 80.2031C174.972 78.6923 176.171 77.504 177.686 76.638C179.2 75.7721 180.877 75.3391 182.716 75.3391ZM182.743 77.7159C181.427 77.7159 180.201 78.0475 179.065 78.7108C177.947 79.374 177.055 80.2768 176.388 81.4191C175.721 82.543 175.387 83.7866 175.387 85.15C175.387 86.5134 175.721 87.7662 176.388 88.9085C177.055 90.0508 177.947 90.9628 179.065 91.6445C180.201 92.3077 181.427 92.6394 182.743 92.6394C184.059 92.6394 185.267 92.3077 186.367 91.6445C187.484 90.9628 188.368 90.0508 189.017 88.9085C189.684 87.7662 190.017 86.5134 190.017 85.15C190.017 83.7866 189.684 82.543 189.017 81.4191C188.368 80.2768 187.484 79.374 186.367 78.7108C185.267 78.0475 184.059 77.7159 182.743 77.7159Z" fill="white"/>
<path d="M214.181 75.505H216.75V94.8502H214.127L203.31 79.8715V94.8502H200.714V75.505H203.337L214.181 90.5114V75.505Z" fill="white"/>
<path fill-rule="evenodd" clip-rule="evenodd" d="M243.409 63.7507C243.409 70.9509 245.892 77.9309 250.439 83.5135C254.986 89.0967 261.318 92.9408 268.37 94.3981C275.421 95.856 282.759 94.8373 289.146 91.5145C295.534 88.1923 300.581 82.7687 303.435 76.1583C306.29 69.5484 306.778 62.1558 304.817 55.2278C302.856 48.2999 298.567 42.26 292.671 38.1262C286.776 33.9929 279.635 32.0183 272.454 32.5362C265.272 33.054 258.489 36.0327 253.248 40.969L262.154 50.4251C258.593 53.7886 256.324 58.5042 256.168 63.7507H243.409ZM274.705 78.8189C282.386 78.8189 288.614 72.0726 288.614 63.7507C288.614 55.4288 282.386 48.6825 274.705 48.6825C267.023 48.6825 260.796 55.4288 260.796 63.7507C260.796 72.0726 267.023 78.8189 274.705 78.8189Z" fill="white"/>
<g opacity="0.3" filter="url(#filter0_f)">
<rect x="271.263" y="22.5762" width="14.53" height="34.667" transform="rotate(25.9846 271.263 22.5762)" fill="#5C33AB"/>
</g>
<path d="M290.932 0H271.227C271.227 0 248.625 44.625 246.886 49.2614C245.148 53.8977 243.409 58.6003 243.409 63.75C243.409 81.034 257.421 95.0455 274.705 95.0455C291.989 95.0455 306 81.034 306 63.75C306 63.3618 305.993 62.9758 305.979 62.5909H288.573C288.6 62.9735 288.614 63.3601 288.614 63.75C288.614 72.0719 282.386 78.8182 274.705 78.8182C267.023 78.8182 260.796 72.0719 260.796 63.75C260.796 59.4674 262.445 55.6013 265.093 52.8581L275.05 32.4563H275.035L275.864 30.7646L276.172 30.1364L279.376 23.5938L279.622 23.0901L290.932 0Z" fill="white"/>
<defs>
<filter id="filter0_f" x="250.075" y="16.5762" width="40.2498" height="49.5286" filterUnits="userSpaceOnUse" color-interpolation-filters="sRGB">
<feFlood flood-opacity="0" result="BackgroundImageFix"/>
<feBlend mode="normal" in="SourceGraphic" in2="BackgroundImageFix" result="shape"/>
<feGaussianBlur stdDeviation="3" result="effect1_foregroundBlur"/>
</filter>
</defs>
</svg>
